<svg width="50" height="50" viewBox="0 0 50 50" fill="none" xmlns="http://www.w3.org/2000/svg">
<g clip-path="url(#clip0_75_330)">
<path fill-rule="evenodd" clip-rule="evenodd" d="M43.839 10.203L28.05 0.831092C27.1326 0.286453 26.0855 -0.000976562 25.0187 -0.000976562C23.9519 -0.000976562 22.9048 0.286453 21.9875 0.831092L6.19528 10.203C5.2567 10.763 4.48006 11.5577 3.94173 12.5089C3.40339 13.4601 3.12191 14.535 3.12497 15.628V34.3717C3.11917 35.4621 3.39662 36.5353 3.93017 37.4863C4.46372 38.4373 5.23508 39.2334 6.16872 39.7967L21.9578 49.1686C22.8751 49.7132 23.9222 50.0007 24.989 50.0007C26.0558 50.0007 27.103 49.7132 28.0203 49.1686L43.8125 39.7967C44.7461 39.2334 45.5175 38.4373 46.051 37.4863C46.5846 36.5353 46.862 35.4621 46.8562 34.3717V15.628C46.8649 14.5403 46.5917 13.4688 46.0633 12.5181C45.5348 11.5674 44.769 10.7697 43.8406 10.203H43.839ZM31.6093 39.4717V40.8155C31.6084 40.8983 31.5867 40.9796 31.5463 41.0519C31.5059 41.1242 31.4481 41.1853 31.3781 41.2295L30.5781 41.6873C30.4531 41.753 30.3468 41.6873 30.3468 41.5108V40.1873C29.7821 40.4649 29.1357 40.5276 28.5281 40.3639C28.4312 40.2983 28.3937 40.1733 28.4406 40.0514L28.7265 38.8327C28.7504 38.7296 28.8062 38.6366 28.8859 38.567C28.9086 38.5445 28.9351 38.526 28.964 38.5123C29.0042 38.4967 29.0488 38.4967 29.089 38.5123C29.6467 38.6621 30.2409 38.5869 30.7437 38.303C31.1009 38.1285 31.4042 37.8607 31.6215 37.5278C31.8388 37.195 31.962 36.8095 31.9781 36.4123C31.9781 35.728 31.6031 35.4436 30.6968 35.4358C29.55 35.4358 28.5093 35.217 28.4625 33.5233C28.4756 32.8002 28.6485 32.089 28.9689 31.4407C29.2893 30.7923 29.7492 30.2229 30.3156 29.7733V28.4108C30.3187 28.3278 30.3413 28.2466 30.3814 28.1739C30.4216 28.1012 30.4782 28.0389 30.5468 27.992L31.3187 27.5014C31.4437 27.4358 31.55 27.5014 31.55 27.6827V29.0452C32.0228 28.8302 32.5506 28.7669 33.0609 28.8639C33.1703 28.9264 33.214 29.0639 33.1609 29.1764L32.8906 30.3842C32.86 30.5095 32.7829 30.6184 32.675 30.6889C32.6437 30.7077 32.5968 30.7014 32.5593 30.6889C32.0619 30.58 31.5416 30.6649 31.1047 30.9264C30.7859 31.0639 30.5129 31.2893 30.3176 31.5762C30.1222 31.8632 30.0126 32.1998 30.0015 32.5467C30.0015 33.1639 30.3265 33.3514 31.4187 33.3748C32.8797 33.3748 33.5078 34.0358 33.525 35.503C33.5112 36.2617 33.3324 37.0083 33.0011 37.6909C32.6697 38.3736 32.1938 38.9759 31.6062 39.4561L31.6093 39.4717ZM39.8797 37.2061C39.8891 37.2629 39.8827 37.3213 39.8612 37.3748C39.8397 37.4282 39.8039 37.4747 39.7578 37.5092L35.7812 39.9342C35.7437 39.9655 35.6875 39.9702 35.6453 39.9452C35.6031 39.9202 35.5828 39.867 35.5937 39.8202V38.7889C35.5964 38.7338 35.615 38.6806 35.6471 38.6357C35.6793 38.5908 35.7236 38.5561 35.775 38.5358L39.7062 36.1811C39.7437 36.1498 39.8 36.1452 39.8422 36.1702C39.8843 36.1952 39.9046 36.2483 39.8937 36.2952V37.2045L39.8797 37.2061ZM42.6375 14.1561L27.6968 23.3842C25.8328 24.4873 24.4625 25.6936 24.4625 27.9373V46.3405C24.4625 47.6842 25.014 48.528 25.8406 48.8092C25.5674 48.8602 25.2904 48.8879 25.0125 48.892C24.135 48.8901 23.2741 48.6521 22.5203 48.203L6.73122 38.8327C5.96244 38.3714 5.32722 37.7176 4.88826 36.9358C4.4493 36.1541 4.22176 35.2714 4.22809 34.3748V15.628C4.22101 14.7302 4.44817 13.8462 4.88714 13.063C5.32611 12.2799 5.96171 11.6248 6.73122 11.1623L22.5203 1.79047C24.0515 0.884217 25.9515 0.884217 27.4828 1.79047L43.2718 11.1623C44.5734 11.9498 45.4593 13.2717 45.6968 14.7561C45.1843 13.642 44.0047 13.3498 42.6312 14.1389H42.6359L42.6375 14.1561Z" fill="#1B1B1F"/>
</g>
<defs>
<clipPath id="clip0_75_330">
<rect width="50" height="50" fill="white"/>
</clipPath>
</defs>
</svg>
