<svg width="50" height="50" viewBox="0 0 50 50" fill="none" xmlns="http://www.w3.org/2000/svg">
<g clip-path="url(#clip0_75_557)">
<path d="M0 0H42C44.1217 0 46.1566 0.842855 47.6569 2.34315C49.1571 3.84344 50 5.87827 50 8V42C50 44.1217 49.1571 46.1566 47.6569 47.6569C46.1566 49.1571 44.1217 50 42 50H8C5.87827 50 3.84344 49.1571 2.34315 47.6569C0.842855 46.1566 0 44.1217 0 42L0 0Z" fill="#663399"/>
<path d="M40.827 45.9951C39.2075 45.9951 37.969 45.5241 37.102 44.5776C36.2445 43.6261 35.798 42.2686 35.758 40.4956H39.248C39.268 42.0636 39.819 42.8496 40.902 42.8496C41.454 42.8496 41.845 42.6746 42.0705 42.3286C42.291 41.9836 42.4065 41.4321 42.4065 40.6761C42.4065 40.0751 42.256 39.5741 41.965 39.1786C41.5702 38.7081 41.0633 38.3446 40.491 38.1216L39.1975 37.5001C38.0445 36.9491 37.207 36.2981 36.6905 35.5366C36.189 34.7801 35.9385 33.7186 35.9385 32.3616C35.9385 30.8436 36.38 29.6116 37.257 28.6646C38.1595 27.7181 39.388 27.2476 40.957 27.2476C42.472 27.2476 43.645 27.7131 44.472 28.6396C45.3145 29.5716 45.7555 30.9036 45.791 32.6466H42.4315C42.4515 32.0766 42.3365 31.5106 42.0955 30.9936C41.9055 30.6136 41.534 30.4231 40.9825 30.4231C40 30.4231 39.5085 31.0086 39.5085 32.1756C39.5085 32.7671 39.6285 33.2276 39.8695 33.5781C40.2167 33.9658 40.6517 34.2649 41.138 34.4501L42.3765 34.9961C43.655 35.5821 44.5775 36.2986 45.144 37.1651C45.7155 38.0266 45.9965 39.1786 45.9965 40.6211C45.9965 42.3491 45.545 43.6761 44.6275 44.6026C43.715 45.5291 42.4465 45.9951 40.8275 45.9951H40.827ZM29.556 45.9951C27.936 45.9951 26.698 45.5241 25.8305 44.5776C24.973 43.6261 24.527 42.2686 24.487 40.4956H27.9765C27.9965 42.0636 28.548 42.8496 29.6315 42.8496C30.1825 42.8496 30.5735 42.6746 30.794 42.3286C31.02 41.9836 31.13 41.4321 31.13 40.6761C31.13 40.0751 30.985 39.5741 30.694 39.1786C30.2992 38.7081 29.7923 38.3446 29.22 38.1216L27.9265 37.5001C26.773 36.9491 25.936 36.2981 25.4195 35.5366C24.918 34.7801 24.6675 33.7186 24.6675 32.3616C24.6675 30.8436 25.1085 29.6116 25.986 28.6646C26.8885 27.7181 28.117 27.2476 29.686 27.2476C31.2005 27.2476 32.3735 27.7131 33.196 28.6396C34.0485 29.5716 34.4845 30.9036 34.5195 32.6466H31.1605C31.1805 32.0766 31.0655 31.5106 30.8245 30.9936C30.634 30.6136 30.263 30.4231 29.7115 30.4231C28.7285 30.4231 28.237 31.0086 28.237 32.1756C28.237 32.7671 28.3575 33.2276 28.598 33.5781C28.9452 33.9658 29.3802 34.2649 29.8665 34.4501L31.105 34.9961C32.3835 35.5821 33.306 36.2986 33.873 37.1651C34.4395 38.0266 34.725 39.1786 34.725 40.6211C34.725 42.3491 34.269 43.6761 33.3565 44.6026C32.444 45.5291 31.1755 45.9951 29.556 45.9951ZM17.8185 45.9951C16.2335 45.9951 14.9755 45.5641 14.043 44.7026C13.1105 43.8466 12.649 42.5591 12.649 40.8561V32.4416C12.649 30.7491 13.1405 29.4666 14.123 28.5851C15.121 27.7136 16.4295 27.2731 18.049 27.2731C19.6185 27.2731 20.8565 27.7236 21.774 28.6151C22.702 29.5116 23.168 30.8441 23.168 32.6221V33.2881H19.473V32.6421C19.473 31.9561 19.3225 31.4501 19.0315 31.1196C18.9045 30.9543 18.7401 30.8214 18.5519 30.7318C18.3637 30.6421 18.157 30.5982 17.9485 30.6036C17.347 30.6036 16.921 30.8086 16.68 31.2246C16.4235 31.8 16.3083 32.4285 16.344 33.0576V40.3706C16.344 41.8981 16.881 42.6746 17.949 42.6896C18.45 42.6896 18.826 42.5091 19.087 42.1486C19.3705 41.6932 19.5054 41.161 19.473 40.6256V40.0801H23.168V40.6511C23.168 41.8381 22.9375 42.8296 22.471 43.6211C22.0276 44.3935 21.3621 45.0148 20.561 45.4041C19.7055 45.8124 18.7663 46.0148 17.8185 45.9951Z" fill="white"/>
</g>
<defs>
<clipPath id="clip0_75_557">
<rect width="50" height="50" fill="white"/>
</clipPath>
</defs>
</svg>
