<svg width="45" height="50" viewBox="0 0 45 50" fill="none" xmlns="http://www.w3.org/2000/svg">
<g clip-path="url(#clip0_75_417)">
<mask id="mask0_75_417" style="mask-type:luminance" maskUnits="userSpaceOnUse" x="0" y="0" width="45" height="50">
<path d="M0 0H44.3478V49.9058H0V0Z" fill="white"/>
</mask>
<g mask="url(#mask0_75_417)">
<path d="M43.7835 37.4293C44.1315 36.8266 44.3477 36.1474 44.3477 35.5376V14.368C44.3477 13.7583 44.1318 13.0793 43.7837 12.4766L22.1738 24.9529L43.7835 37.4293Z" fill="#00599C"/>
<path d="M24.0942 49.4485L42.4276 38.8638C42.9557 38.5589 43.4357 38.0324 43.7836 37.4295L22.1739 24.9531L0.564209 37.4296C0.912035 38.0324 1.39233 38.5591 1.9203 38.8638L20.2536 49.4485C21.3097 50.0583 23.0381 50.0583 24.0942 49.4485Z" fill="#004482"/>
<path d="M43.7838 12.4764C43.4357 11.8735 42.9555 11.347 42.4276 11.042L24.0942 0.457391C23.0381 -0.152464 21.3097 -0.152464 20.2536 0.457391L1.92029 11.042C0.864058 11.6517 0 13.1485 0 14.3681V35.5375C0 36.1474 0.216087 36.8265 0.564203 37.4293L22.1739 24.9529L43.7838 12.4764Z" fill="#659AD2"/>
<path d="M22.174 39.7356C14.0228 39.7356 7.39136 33.1042 7.39136 24.953C7.39136 16.8019 14.0228 10.1704 22.174 10.1704C27.4337 10.1704 32.339 13.0008 34.9756 17.5571L28.578 21.2591C27.2585 18.9785 24.8044 17.5617 22.174 17.5617C18.0983 17.5617 14.7827 20.8774 14.7827 24.953C14.7827 29.0285 18.0983 32.3443 22.174 32.3443C24.8047 32.3443 27.2588 30.9275 28.5785 28.6465L34.976 32.3484C32.3395 36.905 27.434 39.7356 22.174 39.7356Z" fill="white"/>
</g>
</g>
<defs>
<clipPath id="clip0_75_417">
<rect width="44.3478" height="50" fill="white"/>
</clipPath>
</defs>
</svg>
