<svg width="50" height="50" viewBox="0 0 50 50" fill="none" xmlns="http://www.w3.org/2000/svg">
<g clip-path="url(#clip0_75_1272)">
<path d="M0 0H50V50H0V0Z" fill="#F0DB4F"/>
<path d="M45.9078 38.0749C45.5418 35.7935 44.0541 33.8781 39.6482 32.091C38.1178 31.3876 36.4116 30.8838 35.903 29.7241C35.7224 29.0492 35.6986 28.669 35.8127 28.2602C36.1406 26.9342 37.7233 26.5207 38.9781 26.9009C39.7861 27.1718 40.5513 27.7945 41.0123 28.7878C43.1701 27.3905 43.1654 27.4 44.672 26.4399C44.1207 25.5844 43.826 25.1899 43.4648 24.824C42.1673 23.3743 40.3992 22.6281 37.5713 22.6852C37.0817 22.747 36.5875 22.8135 36.0979 22.8753C34.6863 23.2317 33.3412 23.9732 32.5522 24.9665C30.1853 27.6519 30.8602 32.3524 33.7405 34.2869C36.5779 36.4162 40.7462 36.901 41.2785 38.8924C41.7965 41.3306 39.4867 42.1195 37.191 41.8392C35.499 41.4875 34.558 40.6272 33.5408 39.0635C31.6683 40.1472 31.6683 40.1472 29.7434 41.2546C30.1996 42.2527 30.6796 42.7042 31.4449 43.5692C35.0665 47.2432 44.1302 47.0625 45.7557 41.5017C45.8222 41.3116 46.2595 40.0378 45.9078 38.0749ZM27.1815 22.9798H22.5047C22.5047 27.0197 22.4858 31.0311 22.4858 35.0711C22.4858 37.6424 22.6188 39.9998 22.2006 40.7222C21.5162 42.1433 19.7434 41.9674 18.9354 41.6917C18.1131 41.2877 17.6949 40.7126 17.2101 39.9C17.077 39.6671 16.9772 39.4865 16.9439 39.4722C15.6749 40.2469 14.4106 41.0263 13.1416 41.8011C13.7738 43.0986 14.7053 44.225 15.8983 44.9569C17.6806 46.0263 20.076 46.3543 22.5808 45.7792C24.211 45.3039 25.6178 44.3201 26.3545 42.823C27.4192 40.86 27.191 38.4836 27.1815 35.8553C27.2053 31.5682 27.1815 27.2811 27.1815 22.9798Z" fill="#323330"/>
</g>
<defs>
<clipPath id="clip0_75_1272">
<rect width="50" height="50" fill="white"/>
</clipPath>
</defs>
</svg>
