<svg width="37" height="50" viewBox="0 0 37 50" fill="none" xmlns="http://www.w3.org/2000/svg">
<g clip-path="url(#clip0_75_1266)">
<path d="M11.9942 38.5836C11.9942 38.5836 9.97112 39.7397 13.2948 40.1732C17.1966 40.6068 19.2197 40.4623 23.5549 39.7397C23.5549 39.7397 24.711 40.4623 26.3006 41.0403C16.6185 45.231 4.19078 40.7513 11.9942 38.5836ZM10.6937 33.2368C10.6937 33.2368 8.52604 34.8264 11.8497 35.1154C16.0405 35.549 19.3642 35.549 25.1445 34.5374C25.1445 34.5374 26.0116 35.2599 27.3122 35.6935C15.4625 39.1617 2.31217 35.9825 10.6937 33.2368Z" fill="#5382A1"/>
<path d="M20.8093 23.9886C23.2659 26.7342 20.2312 29.1909 20.2312 29.1909C20.2312 29.1909 26.3006 26.0117 23.4104 22.11C20.8093 18.3527 18.7861 16.6186 29.7688 10.2603C29.7688 10.2603 12.5723 14.451 20.8093 23.9886Z" fill="#E76F00"/>
<path d="M33.6706 42.6301C33.6706 42.6301 35.1157 43.7862 32.2255 44.7977C26.5897 46.5318 8.6706 46.9654 3.75731 44.7977C2.0232 44.0752 5.3469 42.9191 6.35846 42.7746L8.09257 42.4856C6.06945 41.185 -4.7687 45.2313 2.60124 46.5318C22.5434 49.711 38.8729 45.0868 33.6706 42.6301ZM12.8614 27.4567C12.8614 27.4567 3.75731 29.6243 9.68216 30.4914C12.1388 30.7804 17.0521 30.7804 21.6764 30.3469C25.4336 30.0579 29.1908 29.3353 29.1908 29.3353L26.8787 30.6359C17.6301 32.948 -0.144426 31.792 5.05789 29.3353C9.39315 27.3122 12.8614 27.4567 12.8614 27.4567ZM29.1908 36.5607C38.4394 31.792 34.1041 27.0232 31.0694 27.7457L30.0579 28.0347C30.0579 28.0347 30.3469 27.6012 30.9249 27.3122C36.8498 25.2891 41.4741 33.5261 28.9018 36.8498L29.1908 36.5607Z" fill="#5382A1"/>
<path d="M23.4103 0C23.4103 0 28.6126 5.20231 18.497 13.1503C10.4045 19.6532 16.7629 23.2659 18.497 27.4566C13.8727 23.1214 10.4045 19.3642 12.7167 15.896C16.0404 10.8381 25.5779 8.23699 23.4103 0Z" fill="#E76F00"/>
<path d="M13.7284 49.8557C22.6879 50.4338 36.5608 49.4222 36.8498 45.2314C36.8498 45.2314 36.2717 46.821 29.4798 48.1216C21.8209 49.5667 12.2833 49.4222 6.64746 48.4106C6.64746 48.4106 7.80353 49.4222 13.7284 49.8557Z" fill="#5382A1"/>
</g>
<defs>
<clipPath id="clip0_75_1266">
<rect width="36.9942" height="50" fill="white"/>
</clipPath>
</defs>
</svg>
